<?xml version="1.0" encoding="UTF-8" standalone="no"?>
<svg
   width="64.73642mm"
   height="44.692001mm"
   version="1.1"
   viewBox="0 0 64.736418 44.692"
   id="svg4"
   sodipodi:docname="cobbled-cloud.svg"
   inkscape:version="1.4 (e7c3feb100, 2024-10-09)"
   xmlns:inkscape="http://www.inkscape.org/namespaces/inkscape"
   xmlns:sodipodi="http://sodipodi.sourceforge.net/DTD/sodipodi-0.dtd"
   xmlns="http://www.w3.org/2000/svg"
   xmlns:svg="http://www.w3.org/2000/svg">
  <defs
     id="defs4" />
  <sodipodi:namedview
     id="namedview4"
     pagecolor="#ffffff"
     bordercolor="#000000"
     borderopacity="0.25"
     inkscape:showpageshadow="2"
     inkscape:pageopacity="0.0"
     inkscape:pagecheckerboard="0"
     inkscape:deskcolor="#d1d1d1"
     inkscape:document-units="mm"
     inkscape:zoom="1.9383007"
     inkscape:cx="-105.50479"
     inkscape:cy="126.91529"
     inkscape:window-width="2560"
     inkscape:window-height="1371"
     inkscape:window-x="0"
     inkscape:window-y="0"
     inkscape:window-maximized="1"
     inkscape:current-layer="g4" />
  <g
     transform="translate(-47.30629,-84.490997)"
     id="g4">
    <g
       id="g5">
      <ellipse
         cx="92.171997"
         cy="108.11"
         rx="18.434"
         ry="11.004"
         fill="#5c5c5c"
         stroke-width="0.22693"
         id="ellipse1" />
      <ellipse
         cx="79.371002"
         cy="100.75"
         rx="21.054001"
         ry="16.257999"
         fill="#666666"
         stroke-width="0.24174"
         id="ellipse2" />
      <ellipse
         cx="63.497002"
         cy="107.15"
         rx="14.754"
         ry="11.394"
         fill="#6c6c6c"
         stroke-width="0.16941"
         id="ellipse3" />
      <ellipse
         cx="78.474998"
         cy="112.27"
         rx="15.234"
         ry="9.3452997"
         fill="#868686"
         stroke-width="0.26458"
         id="ellipse4" />
    </g>
    <path
       style="font-weight:bold;font-size:8.4667px;font-family:'Adwaita Mono';-inkscape-font-specification:'Adwaita Mono Bold';stroke-width:0.26458;fill:#d35f5f;stroke:none"
       d="m 49.202831,129.16046 q -0.254001,0 -0.508002,-0.0423 -0.254001,-0.0423 -0.482602,-0.1524 -0.220134,-0.11854 -0.406402,-0.29634 -0.1778,-0.18626 -0.296334,-0.41487 -0.118534,-0.2286 -0.160867,-0.47413 -0.04233,-0.254 -0.04233,-0.508 v -2.58235 q 0,-0.254 0.04233,-0.49953 0.04233,-0.254 0.160867,-0.4826 0.118534,-0.2286 0.296334,-0.4064 0.186268,-0.18627 0.406402,-0.29634 0.228601,-0.11853 0.482602,-0.16087 0.254001,-0.0423 0.508002,-0.0423 0.237067,0 0.465668,0.0339 0.237068,0.0339 0.457202,0.127 0.220134,0.0847 0.406402,0.23706 0.186267,0.14394 0.313267,0.34714 0.127001,0.19473 0.186268,0.42333 0.06773,0.22861 0.06773,0.46567 v 0.0339 h -1.007537 v -0.0169 q 0,-0.16934 -0.06773,-0.33021 -0.05927,-0.16086 -0.194734,-0.27093 -0.127001,-0.11007 -0.296335,-0.1524 -0.160867,-0.0423 -0.330201,-0.0423 -0.194734,0 -0.381002,0.0762 -0.186267,0.0762 -0.304801,0.2286 -0.118534,0.1524 -0.160867,0.34713 -0.04233,0.18627 -0.04233,0.381 v 2.58235 q 0,0.19473 0.04233,0.38947 0.04233,0.18626 0.160867,0.33866 0.118534,0.1524 0.304801,0.2286 0.186268,0.0762 0.381002,0.0762 0.169334,0 0.330201,-0.0423 0.169334,-0.0423 0.296335,-0.1524 0.135467,-0.11007 0.194734,-0.27093 0.06773,-0.16087 0.06773,-0.33021 v -0.0169 h 1.007537 v 0.0339 q 0,0.23707 -0.06773,0.46567 -0.05927,0.2286 -0.186268,0.4318 -0.127,0.19473 -0.313267,0.34713 -0.186268,0.14394 -0.406402,0.23707 -0.220134,0.0847 -0.457202,0.11853 -0.228601,0.0339 -0.465668,0.0339 z m 5.105423,0 q -0.254001,0 -0.508002,-0.0423 -0.245535,-0.0423 -0.474135,-0.14394 -0.228601,-0.11006 -0.423335,-0.2794 -0.186268,-0.1778 -0.304802,-0.39793 -0.118533,-0.2286 -0.169334,-0.47414 -0.04233,-0.254 -0.04233,-0.508 v -0.84667 q 0,-0.254 0.04233,-0.49953 0.0508,-0.25401 0.169334,-0.47414 0.118534,-0.2286 0.304802,-0.39793 0.194734,-0.17781 0.423335,-0.27941 0.2286,-0.11006 0.474135,-0.1524 0.254001,-0.0423 0.508002,-0.0423 0.254001,0 0.499535,0.0423 0.254001,0.0423 0.482602,0.1524 0.228601,0.1016 0.414868,0.27941 0.194734,0.16933 0.313268,0.39793 0.118534,0.22013 0.160867,0.47414 0.0508,0.24553 0.0508,0.49953 v 0.84667 q 0,0.254 -0.0508,0.508 -0.04233,0.24554 -0.160867,0.47414 -0.118534,0.22013 -0.313268,0.39793 -0.186267,0.16934 -0.414868,0.2794 -0.228601,0.1016 -0.482602,0.14394 -0.245534,0.0423 -0.499535,0.0423 z m 0,-0.85514 q 0.194734,0 0.381001,-0.0593 0.186268,-0.0677 0.304801,-0.21167 0.127001,-0.1524 0.177801,-0.33867 0.0508,-0.18627 0.0508,-0.381 v -0.84667 q 0,-0.19473 -0.0508,-0.381 -0.0508,-0.18627 -0.177801,-0.3302 -0.118533,-0.1524 -0.304801,-0.21167 -0.186267,-0.0677 -0.381001,-0.0677 -0.194734,0 -0.381002,0.0677 -0.186267,0.0593 -0.313268,0.21167 -0.118533,0.14393 -0.169334,0.3302 -0.0508,0.18627 -0.0508,0.381 v 0.84667 q 0,0.19473 0.0508,0.381 0.0508,0.18627 0.169334,0.33867 0.127001,0.14393 0.313268,0.21167 0.186268,0.0593 0.381002,0.0593 z m 5.537224,0.85514 q -0.211667,0 -0.423335,-0.0508 -0.203201,-0.0508 -0.381001,-0.16933 -0.169334,-0.127 -0.296335,-0.29634 -0.127,-0.1778 -0.2032,-0.37253 v 0.82127 h -1.007538 v -6.22303 h 1.007538 v 2.64161 q 0.0762,-0.19473 0.2032,-0.36406 0.127001,-0.17781 0.296335,-0.29634 0.1778,-0.127 0.381001,-0.1778 0.211668,-0.0508 0.423335,-0.0508 0.228601,0 0.440269,0.0593 0.220134,0.0593 0.397935,0.19473 0.1778,0.127 0.304801,0.32174 0.127,0.18626 0.194734,0.39793 0.0762,0.2032 0.1016,0.4318 0.0254,0.22014 0.0254,0.44027 v 0.84667 q 0,0.22013 -0.0254,0.44874 -0.0254,0.22013 -0.1016,0.4318 -0.06773,0.2032 -0.194734,0.39793 -0.127001,0.18627 -0.304801,0.32174 -0.177801,0.127 -0.397935,0.18626 -0.211668,0.0593 -0.440269,0.0593 z m -0.423335,-0.85514 q 0.186268,0 0.364068,-0.0677 0.186268,-0.0677 0.304802,-0.21167 0.118533,-0.1524 0.160867,-0.33866 0.0508,-0.18627 0.0508,-0.37254 v -0.84667 q 0,-0.18627 -0.0508,-0.37253 -0.04233,-0.18627 -0.160867,-0.33021 -0.118534,-0.1524 -0.304802,-0.22013 -0.1778,-0.0677 -0.364068,-0.0677 -0.186267,0 -0.372535,0.0677 -0.1778,0.0677 -0.296334,0.22013 -0.118534,0.14394 -0.169334,0.33021 -0.04233,0.18626 -0.04233,0.37253 v 0.84667 q 0,0.18627 0.04233,0.37254 0.0508,0.18626 0.169334,0.33866 0.118534,0.14394 0.296334,0.21167 0.186268,0.0677 0.372535,0.0677 z m 5.503358,0.85514 q -0.211667,0 -0.423335,-0.0508 -0.203201,-0.0508 -0.381001,-0.16933 -0.169334,-0.127 -0.296335,-0.29634 -0.127,-0.1778 -0.203201,-0.37253 v 0.82127 h -1.007537 v -6.22303 h 1.007537 v 2.64161 q 0.0762,-0.19473 0.203201,-0.36406 0.127001,-0.17781 0.296335,-0.29634 0.1778,-0.127 0.381001,-0.1778 0.211668,-0.0508 0.423335,-0.0508 0.228601,0 0.440268,0.0593 0.220135,0.0593 0.397935,0.19473 0.177801,0.127 0.304802,0.32174 0.127,0.18626 0.194734,0.39793 0.0762,0.2032 0.1016,0.4318 0.0254,0.22014 0.0254,0.44027 v 0.84667 q 0,0.22013 -0.0254,0.44874 -0.0254,0.22013 -0.1016,0.4318 -0.06773,0.2032 -0.194734,0.39793 -0.127001,0.18627 -0.304802,0.32174 -0.1778,0.127 -0.397935,0.18626 -0.211667,0.0593 -0.440268,0.0593 z m -0.423335,-0.85514 q 0.186267,0 0.364068,-0.0677 0.186268,-0.0677 0.304801,-0.21167 0.118534,-0.1524 0.160868,-0.33866 0.0508,-0.18627 0.0508,-0.37254 v -0.84667 q 0,-0.18627 -0.0508,-0.37253 -0.04233,-0.18627 -0.160868,-0.33021 -0.118533,-0.1524 -0.304801,-0.22013 -0.177801,-0.0677 -0.364068,-0.0677 -0.186267,0 -0.372535,0.0677 -0.1778,0.0677 -0.296334,0.22013 -0.118534,0.14394 -0.169334,0.33021 -0.04233,0.18626 -0.04233,0.37253 v 0.84667 q 0,0.18627 0.04233,0.37254 0.0508,0.18626 0.169334,0.33866 0.118534,0.14394 0.296334,0.21167 0.186268,0.0677 0.372535,0.0677 z m 6.83263,0.78741 h -0.787403 q -0.203201,0 -0.406402,-0.0339 -0.194734,-0.0339 -0.381001,-0.11853 -0.177801,-0.0931 -0.321735,-0.23707 -0.143934,-0.14393 -0.237068,-0.32174 -0.08467,-0.18626 -0.118533,-0.38946 -0.03387,-0.2032 -0.03387,-0.4064 v -3.86082 h -1.202272 v -0.85514 h 2.201342 v 4.71596 q 0,0.11853 0.01693,0.23706 0.0254,0.11854 0.08467,0.22014 0.06773,0.0931 0.169334,0.14393 0.110067,0.0508 0.228601,0.0508 h 0.787403 z m 3.293549,0.0677 q -0.254001,0 -0.508002,-0.0423 -0.245534,-0.0423 -0.474135,-0.14394 -0.228601,-0.11006 -0.423335,-0.2794 -0.186268,-0.1778 -0.304801,-0.39793 -0.118534,-0.2286 -0.169334,-0.47414 -0.04233,-0.254 -0.04233,-0.508 v -0.84667 q 0,-0.254 0.04233,-0.49953 0.0508,-0.25401 0.169334,-0.47414 0.118533,-0.2286 0.304801,-0.39793 0.194734,-0.17781 0.423335,-0.27941 0.228601,-0.11006 0.474135,-0.1524 0.254001,-0.0423 0.508002,-0.0423 0.254001,0 0.499535,0.0423 0.254001,0.0423 0.482602,0.1524 0.228601,0.1016 0.414868,0.27941 0.194734,0.16933 0.313268,0.39793 0.118534,0.22013 0.160868,0.47414 0.0508,0.24553 0.0508,0.49953 v 0.84667 h -2.853278 q 0,0.19473 0.0508,0.38947 0.0508,0.18627 0.177801,0.33867 0.127,0.14393 0.313268,0.21166 0.194734,0.0677 0.389468,0.0677 0.143934,0 0.287868,-0.0169 0.1524,-0.0254 0.287867,-0.0847 0.135468,-0.0593 0.237068,-0.16934 0.1016,-0.11853 0.1016,-0.26246 h 0.990604 q 0,0.21166 -0.08467,0.42333 -0.0762,0.21167 -0.220134,0.381 -0.143934,0.16087 -0.338668,0.2794 -0.186267,0.11007 -0.397935,0.1778 -0.203201,0.0593 -0.423335,0.0847 -0.220134,0.0254 -0.440268,0.0254 z m -0.931337,-2.69241 h 1.862674 q 0,-0.19473 -0.0508,-0.381 -0.0508,-0.19473 -0.177801,-0.33867 -0.127001,-0.1524 -0.321735,-0.22013 -0.186267,-0.0677 -0.381001,-0.0677 -0.194734,0 -0.389468,0.0677 -0.186268,0.0677 -0.313268,0.22013 -0.127001,0.14394 -0.177801,0.33867 -0.0508,0.18627 -0.0508,0.381 z m 5.554158,2.69241 q -0.228601,0 -0.448735,-0.0593 -0.211668,-0.0593 -0.389468,-0.18626 -0.177801,-0.13547 -0.304801,-0.32174 -0.127001,-0.19473 -0.203201,-0.39793 -0.06773,-0.21167 -0.09313,-0.4318 -0.0254,-0.22861 -0.0254,-0.44874 v -0.84667 q 0,-0.22013 0.0254,-0.44027 0.0254,-0.2286 0.09313,-0.4318 0.0762,-0.21167 0.203201,-0.39793 0.127,-0.19474 0.304801,-0.32174 0.1778,-0.13547 0.389468,-0.19473 0.220134,-0.0593 0.448735,-0.0593 0.211667,0 0.414868,0.0508 0.211668,0.0508 0.381002,0.1778 0.1778,0.11853 0.304801,0.29634 0.127,0.16933 0.203201,0.36406 v -2.64161 h 1.007537 v 6.22303 h -1.007537 v -0.82127 q -0.0762,0.19473 -0.203201,0.37253 -0.127001,0.16934 -0.304801,0.29634 -0.169334,0.11853 -0.381002,0.16933 -0.203201,0.0508 -0.414868,0.0508 z m 0.423335,-0.85514 q 0.186267,0 0.364068,-0.0677 0.186267,-0.0677 0.304801,-0.21167 0.118534,-0.1524 0.160867,-0.33866 0.0508,-0.18627 0.0508,-0.37254 v -0.84667 q 0,-0.18627 -0.0508,-0.37253 -0.04233,-0.18627 -0.160867,-0.33021 -0.118534,-0.1524 -0.304801,-0.22013 -0.177801,-0.0677 -0.364068,-0.0677 -0.186267,0 -0.372535,0.0677 -0.177801,0.0677 -0.296334,0.22013 -0.118534,0.14394 -0.169334,0.33021 -0.04233,0.18626 -0.04233,0.37253 v 0.84667 q 0,0.18627 0.04233,0.37254 0.0508,0.18626 0.169334,0.33866 0.118533,0.14394 0.296334,0.21167 0.186268,0.0677 0.372535,0.0677 z m 10.168512,0.85514 q -0.254001,0 -0.508002,-0.0423 -0.254001,-0.0423 -0.482602,-0.1524 -0.220134,-0.11854 -0.406401,-0.29634 -0.177801,-0.18626 -0.296335,-0.41487 -0.118533,-0.2286 -0.160867,-0.47413 -0.04233,-0.254 -0.04233,-0.508 v -2.58235 q 0,-0.254 0.04233,-0.49953 0.04233,-0.254 0.160867,-0.4826 0.118534,-0.2286 0.296335,-0.4064 0.186267,-0.18627 0.406401,-0.29634 0.228601,-0.11853 0.482602,-0.16087 0.254001,-0.0423 0.508002,-0.0423 0.237068,0 0.465669,0.0339 0.237067,0.0339 0.457202,0.127 0.220134,0.0847 0.406401,0.23706 0.186267,0.14394 0.313268,0.34714 0.127,0.19473 0.186267,0.42333 0.06773,0.22861 0.06773,0.46567 v 0.0339 h -1.007537 v -0.0169 q 0,-0.16934 -0.06773,-0.33021 -0.05927,-0.16086 -0.194734,-0.27093 -0.127,-0.11007 -0.296334,-0.1524 -0.160868,-0.0423 -0.330202,-0.0423 -0.194734,0 -0.381001,0.0762 -0.186268,0.0762 -0.304801,0.2286 -0.118534,0.1524 -0.160868,0.34713 -0.04233,0.18627 -0.04233,0.381 v 2.58235 q 0,0.19473 0.04233,0.38947 0.04233,0.18626 0.160868,0.33866 0.118533,0.1524 0.304801,0.2286 0.186267,0.0762 0.381001,0.0762 0.169334,0 0.330202,-0.0423 0.169334,-0.0423 0.296334,-0.1524 0.135467,-0.11007 0.194734,-0.27093 0.06773,-0.16087 0.06773,-0.33021 v -0.0169 h 1.007537 v 0.0339 q 0,0.23707 -0.06773,0.46567 -0.05927,0.2286 -0.186267,0.4318 -0.127001,0.19473 -0.313268,0.34713 -0.186267,0.14394 -0.406401,0.23707 -0.220135,0.0847 -0.457202,0.11853 -0.228601,0.0339 -0.465669,0.0339 z m 6.891899,-0.0677 h -0.787403 q -0.203201,0 -0.406402,-0.0339 -0.194734,-0.0339 -0.381001,-0.11853 -0.177801,-0.0931 -0.321735,-0.23707 -0.143934,-0.14393 -0.237068,-0.32174 -0.08467,-0.18626 -0.118533,-0.38946 -0.03387,-0.2032 -0.03387,-0.4064 v -3.86082 h -1.202272 v -0.85514 h 2.201342 v 4.71596 q 0,0.11853 0.01693,0.23706 0.0254,0.11854 0.08467,0.22014 0.06773,0.0931 0.169334,0.14393 0.110067,0.0508 0.228601,0.0508 h 0.787403 z m 3.293548,0.0677 q -0.254002,0 -0.508003,-0.0423 -0.245534,-0.0423 -0.474135,-0.14394 -0.228601,-0.11006 -0.423335,-0.2794 -0.186268,-0.1778 -0.304801,-0.39793 -0.118534,-0.2286 -0.169334,-0.47414 -0.04233,-0.254 -0.04233,-0.508 v -0.84667 q 0,-0.254 0.04233,-0.49953 0.0508,-0.25401 0.169334,-0.47414 0.118533,-0.2286 0.304801,-0.39793 0.194734,-0.17781 0.423335,-0.27941 0.228601,-0.11006 0.474135,-0.1524 0.254001,-0.0423 0.508003,-0.0423 0.254,0 0.49953,0.0423 0.25401,0.0423 0.48261,0.1524 0.2286,0.1016 0.41486,0.27941 0.19474,0.16933 0.31327,0.39793 0.11854,0.22013 0.16087,0.47414 0.0508,0.24553 0.0508,0.49953 v 0.84667 q 0,0.254 -0.0508,0.508 -0.0423,0.24554 -0.16087,0.47414 -0.11853,0.22013 -0.31327,0.39793 -0.18626,0.16934 -0.41486,0.2794 -0.2286,0.1016 -0.48261,0.14394 -0.24553,0.0423 -0.49953,0.0423 z m 0,-0.85514 q 0.19473,0 0.381,-0.0593 0.18627,-0.0677 0.3048,-0.21167 0.127,-0.1524 0.1778,-0.33867 0.0508,-0.18627 0.0508,-0.381 v -0.84667 q 0,-0.19473 -0.0508,-0.381 -0.0508,-0.18627 -0.1778,-0.3302 -0.11853,-0.1524 -0.3048,-0.21167 -0.18627,-0.0677 -0.381,-0.0677 -0.194735,0 -0.381003,0.0677 -0.186267,0.0593 -0.313267,0.21167 -0.118534,0.14393 -0.169334,0.3302 -0.0508,0.18627 -0.0508,0.381 v 0.84667 q 0,0.19473 0.0508,0.381 0.0508,0.18627 0.169334,0.33867 0.127,0.14393 0.313267,0.21167 0.186268,0.0593 0.381003,0.0593 z m 4.65668,0.85514 q -0.22013,0 -0.44026,-0.0593 -0.21167,-0.0593 -0.38947,-0.19473 -0.16934,-0.13547 -0.29634,-0.32173 -0.11853,-0.19474 -0.18626,-0.39794 -0.0677,-0.21167 -0.0931,-0.4318 -0.0254,-0.22014 -0.0254,-0.44027 v -2.62468 h 1.00754 v 2.62468 q 0,0.18627 0.0423,0.37254 0.0423,0.1778 0.1524,0.3302 0.11007,0.14393 0.28787,0.22013 0.1778,0.0677 0.36407,0.0677 0.18627,0 0.36407,-0.0677 0.1778,-0.0762 0.28787,-0.22013 0.11006,-0.1524 0.1524,-0.3302 0.0423,-0.18627 0.0423,-0.37254 v -2.62468 h 1.00754 v 4.40269 h -1.00754 v -0.81281 q -0.0762,0.19474 -0.2032,0.36407 -0.11853,0.16934 -0.28787,0.29634 -0.16933,0.11853 -0.37253,0.16933 -0.2032,0.0508 -0.40641,0.0508 z m 5.04616,0 q -0.2286,0 -0.44873,-0.0593 -0.21167,-0.0593 -0.38947,-0.18626 -0.1778,-0.13547 -0.3048,-0.32174 -0.127,-0.19473 -0.2032,-0.39793 -0.0677,-0.21167 -0.0931,-0.4318 -0.0254,-0.22861 -0.0254,-0.44874 v -0.84667 q 0,-0.22013 0.0254,-0.44027 0.0254,-0.2286 0.0931,-0.4318 0.0762,-0.21167 0.2032,-0.39793 0.127,-0.19474 0.3048,-0.32174 0.1778,-0.13547 0.38947,-0.19473 0.22013,-0.0593 0.44873,-0.0593 0.21167,0 0.41487,0.0508 0.21167,0.0508 0.381,0.1778 0.1778,0.11853 0.3048,0.29634 0.127,0.16933 0.2032,0.36406 v -2.64161 h 1.00754 v 6.22303 h -1.00754 v -0.82127 q -0.0762,0.19473 -0.2032,0.37253 -0.127,0.16934 -0.3048,0.29634 -0.16933,0.11853 -0.381,0.16933 -0.2032,0.0508 -0.41487,0.0508 z m 0.42334,-0.85514 q 0.18627,0 0.36407,-0.0677 0.18626,-0.0677 0.3048,-0.21167 0.11853,-0.1524 0.16086,-0.33866 0.0508,-0.18627 0.0508,-0.37254 v -0.84667 q 0,-0.18627 -0.0508,-0.37253 -0.0423,-0.18627 -0.16086,-0.33021 -0.11854,-0.1524 -0.3048,-0.22013 -0.1778,-0.0677 -0.36407,-0.0677 -0.18627,0 -0.37254,0.0677 -0.1778,0.0677 -0.29633,0.22013 -0.11854,0.14394 -0.16934,0.33021 -0.0423,0.18626 -0.0423,0.37253 v 0.84667 q 0,0.18627 0.0423,0.37254 0.0508,0.18626 0.16934,0.33866 0.11853,0.14394 0.29633,0.21167 0.18627,0.0677 0.37254,0.0677 z"
       id="text4"
       aria-label="Cobbled Cloud" />
  </g>
</svg>
