<?xml version="1.0" encoding="UTF-8" standalone="no"?>
<svg
   version="1.1"
   id="Layer_1"
   x="0px"
   y="0px"
   viewBox="0 0 499.4 121.3"
   style="enable-background:new 0 0 499.4 121.3;"
   xml:space="preserve"
   sodipodi:docname="QUTGuildsvg"
   inkscape:version="1.4 (e7c3feb100, 2024-10-09)"
   xmlns:inkscape="http://www.inkscape.org/namespaces/inkscape"
   xmlns:sodipodi="http://sodipodi.sourceforge.net/DTD/sodipodi-0.dtd"
   xmlns="http://www.w3.org/2000/svg"
   xmlns:svg="http://www.w3.org/2000/svg"><defs
   id="defs12" /><sodipodi:namedview
   id="namedview12"
   pagecolor="#ffffff"
   bordercolor="#000000"
   borderopacity="0.25"
   inkscape:showpageshadow="2"
   inkscape:pageopacity="0.0"
   inkscape:pagecheckerboard="0"
   inkscape:deskcolor="#d1d1d1"
   inkscape:zoom="0.72990298"
   inkscape:cx="-153.44505"
   inkscape:cy="223.31735"
   inkscape:window-width="2560"
   inkscape:window-height="1371"
   inkscape:window-x="0"
   inkscape:window-y="0"
   inkscape:window-maximized="1"
   inkscape:current-layer="Layer_1" />
<g
   id="g12"
   style="fill:#00af98;fill-opacity:1">
	<g
   id="g1"
   style="fill:#00af98;fill-opacity:1">
		<path
   d="M114.5,72.5l10.6,10.6c-2.8,1.3-5.8,2-9,2c-11.4,0-20.8-9.1-21.3-20.4c0-0.4,0-0.8,0-1.2c0-0.3,0-0.6,0-0.9    c0.6-11.2,9.9-20.2,21.3-20.2c7.9,0,15.1,4.3,18.8,11.3l1.1,2.1l10.8-10.8l-0.8-1.2c-6.7-10-17.9-16.1-30-16.1    c-11.6,0-22,5.5-28.6,14.1c-6.6-8.7-17-14.3-28.8-14.3c-19.9,0-36,16.2-36,36c0,19.9,16.2,36,36,36c11.6,0,22-5.5,28.6-14.1    c6.6,8.7,17,14.3,28.8,14.3c11.5,0,22.4-5.6,29.2-14.9l0.9-1.2l-21.4-21.4L114.5,72.5z M78.2,72.4L67.6,61.8L57.2,72.2l10.6,10.6    c-2.8,1.3-5.9,2-9,2c-11.8,0-21.3-9.6-21.3-21.3c0-11.8,9.6-21.3,21.3-21.3c11.4,0,20.8,9,21.3,20.4c0,0.4,0,0.8,0,1.2    c0,0.3,0,0.6,0,1C79.9,67.4,79.3,70,78.2,72.4z"
   id="path1"
   style="fill:#00af98;fill-opacity:1" />
	</g>
	<g
   id="g2"
   style="fill:#00af98;fill-opacity:1">
		<rect
   x="159.5"
   y="27.5"
   width="4.3"
   height="72.2"
   id="rect1"
   style="fill:#00af98;fill-opacity:1" />
	</g>
	<g
   id="g11"
   style="fill:#00af98;fill-opacity:1">
		<g
   id="g3"
   style="fill:#00af98;fill-opacity:1">
			<path
   d="M214.5,78.7l4.7,4.2l-3.5,4l-5.2-4.6c-1.4,0.9-3,1.5-4.8,2c-1.8,0.5-3.6,0.7-5.6,0.7c-6.1,0-10.9-1.9-14.4-5.7     c-3.5-3.8-5.2-9-5.2-15.7c0-6.6,1.8-11.8,5.2-15.7c3.5-3.8,8.3-5.7,14.3-5.7c5.9,0,10.6,1.9,14.1,5.8c3.5,3.8,5.2,9.1,5.2,15.7     c0,3-0.4,5.8-1.2,8.4C217.3,74.5,216.1,76.8,214.5,78.7z M209.5,74.3c1-1.2,1.7-2.7,2.2-4.6c0.5-1.9,0.8-4,0.8-6.3     c0-4.8-1.1-8.5-3.3-11.2c-2.2-2.7-5.3-4.1-9.2-4.1c-4,0-7.1,1.4-9.3,4.1c-2.2,2.7-3.3,6.5-3.3,11.4c0,4.9,1.1,8.7,3.3,11.4     c2.2,2.7,5.4,4.1,9.4,4.1c1,0,2-0.1,2.9-0.3c0.9-0.2,1.7-0.5,2.5-0.9l-4.4-3.9l3.5-4L209.5,74.3z"
   id="path2"
   style="fill:#00af98;fill-opacity:1" />
		</g>
		<g
   id="g4"
   style="fill:#00af98;fill-opacity:1">
			<path
   d="M225.8,43.2h6.8v25.2c0,3.5,0.8,6.1,2.3,7.8c1.5,1.7,3.8,2.5,7,2.5c3.2,0,5.5-0.8,7-2.5c1.5-1.7,2.3-4.3,2.3-7.8V43.2     h6.8v25.6c0,5.1-1.4,9.1-4.2,11.9c-2.8,2.8-6.8,4.2-11.9,4.2c-5.3,0-9.3-1.4-12-4.1c-2.7-2.7-4.1-6.7-4.1-12V43.2z"
   id="path3"
   style="fill:#00af98;fill-opacity:1" />
		</g>
		<g
   id="g5"
   style="fill:#00af98;fill-opacity:1">
			<path
   d="M262.5,43.2h31.7v5.9h-12.4v34.6H275V49.2h-12.5V43.2z"
   id="path4"
   style="fill:#00af98;fill-opacity:1" />
		</g>
		<g
   id="g6"
   style="fill:#00af98;fill-opacity:1">
			<path
   d="M349.6,55.7H343c-0.5-2.4-1.7-4.3-3.5-5.6c-1.8-1.4-4.1-2-6.8-2c-4.1,0-7.2,1.3-9.4,4c-2.2,2.7-3.4,6.5-3.4,11.4     c0,4.8,1.1,8.6,3.4,11.3c2.3,2.8,5.3,4.1,9.3,4.1c3.3,0,6-1,8.1-3.1c2.1-2.1,3.2-4.8,3.3-8.3h-11.1v-5.6h17.3v21.9h-4.5l-1.1-5.1     c-1.5,2-3.3,3.6-5.5,4.6c-2.1,1-4.6,1.6-7.3,1.6c-5.6,0-10.1-2-13.6-5.9c-3.5-3.9-5.2-9.1-5.2-15.4c0-6.5,1.8-11.7,5.3-15.6     c3.5-3.9,8.2-5.8,14-5.8c4.9,0,8.9,1.2,11.9,3.6C347.2,48.1,349.1,51.4,349.6,55.7z"
   id="path5"
   style="fill:#00af98;fill-opacity:1" />
		</g>
		<g
   id="g7"
   style="fill:#00af98;fill-opacity:1">
			<path
   d="M357.5,43.2h6.8v25.2c0,3.5,0.8,6.1,2.3,7.8c1.5,1.7,3.8,2.5,7,2.5c3.2,0,5.5-0.8,7-2.5c1.5-1.7,2.3-4.3,2.3-7.8V43.2     h6.8v25.6c0,5.1-1.4,9.1-4.2,11.9c-2.8,2.8-6.8,4.2-11.9,4.2c-5.3,0-9.3-1.4-12-4.1c-2.7-2.7-4.1-6.7-4.1-12V43.2z"
   id="path6"
   style="fill:#00af98;fill-opacity:1" />
		</g>
		<g
   id="g8"
   style="fill:#00af98;fill-opacity:1">
			<path
   d="M397.8,43.2h6.8v40.6h-6.8V43.2z"
   id="path7"
   style="fill:#00af98;fill-opacity:1" />
		</g>
		<g
   id="g9"
   style="fill:#00af98;fill-opacity:1">
			<path
   d="M413,43.2h6.7v34.4h20v6.1H413V43.2z"
   id="path8"
   style="fill:#00af98;fill-opacity:1" />
		</g>
		<g
   id="g10"
   style="fill:#00af98;fill-opacity:1">
			<path
   d="M444.2,43.2h15.7c5.9,0,10.4,1.7,13.4,5.1c3,3.4,4.5,8.4,4.5,15.1c0,6.6-1.6,11.6-4.9,15.1c-3.3,3.5-8,5.3-14.1,5.3     h-14.5V43.2z M450.9,49v28.8h8.3c4,0,7-1.2,8.9-3.6c1.9-2.4,2.9-6.1,2.9-11.2c0-4.6-1-8.1-2.9-10.5c-1.9-2.4-4.7-3.6-8.4-3.6     H450.9z"
   id="path9"
   style="fill:#00af98;fill-opacity:1" />
		</g>
	</g>
</g>
</svg>
